<svg xmlns="http://www.w3.org/2000/svg" fill="none" viewBox="0 0 425 499"><path fill="#b11" d="M350.171 166.241c3.939-2.337 5.443-1.278 5.456 3.871.05 19.829.167 39.66-.109 59.485-.069 4.989.904 8.407 5.569 11.031 4.306 2.422 8.12 5.813 11.845 9.123 1.289 1.146 2.335 3.325 2.344 5.038.156 28.828.202 57.657-.015 86.483-.015 1.948-1.859 4.622-3.622 5.702-18.876 11.561-37.834 22.995-56.948 34.158-4.631 2.704-6.76 5.566-6.565 11.291.509 14.98.069 29.99.244 44.985.042 3.592-1.082 5.816-4.195 7.663-27.339 16.223-54.616 32.549-81.869 48.915-2.781 1.67-5.283 3.802-7.494 5.867-.968.147-2.356.147-4.162.147-1.213-1.013-1.804-2.369-2.837-2.987-24.14-14.439-48.332-28.791-72.505-43.175-5.151-3.065-10.365-6.042-15.327-9.39-1.266-.855-1.68-2.973-2.485-4.511 1.625.109 3.571-.329 4.828.408 22.25 13.057 44.422 26.247 66.598 39.431 6.722 3.997 13.486 7.932 20.063 12.156 2.667 1.712 4.661 1.413 7.237-.128 28.128-16.832 56.345-33.519 84.423-50.434 1.404-.846 2.482-3.414 2.501-5.194.177-16.162.19-32.328-.008-48.489-.047-3.793 1.143-6.057 4.461-7.996 19.688-11.502 39.224-23.266 58.9-34.789 2.784-1.63 3.839-3.361 3.824-6.67-.124-27.159.045-54.32-.114-81.479-.011-1.913-1.495-4.309-3.027-5.624-3.904-3.35-8.096-6.414-12.419-9.211-3.405-2.202-4.296-5.153-4.272-8.897.117-17.828.149-35.658.177-53.488.003-2.095-.205-4.19-.361-7.183-5.464 3.074-10.221 5.657-14.887 8.395-8.469 4.97-16.996 9.859-25.224 15.205-1.59 1.033-2.703 4.006-2.712 6.089-.156 40.159-.187 80.32-.017 120.48.021 4.957-1.021 8.411-5.576 11.087-17.212 10.113-34.239 20.539-51.336 30.846-2.564 1.546-5.068 3.209-7.719 4.587-4.205 2.185-5.915 1.288-5.976-3.452-.149-11.661-.046-23.326-.043-34.989.005-15.827-.017-31.655.047-47.482.01-2.49-.288-4.14-3.431-4.12-14.81.097-29.62.043-44.962.043-.101 1.67-.262 3.085-.262 4.501-.006 26.327.057 52.655-.014 78.982-.022 8.388-1.57 9.256-8.853 4.972-17.644-10.377-35.208-20.89-52.805-31.346-1.861-1.105-3.944-1.956-5.523-3.372-1-.895-1.255-2.62-1.844-3.973 1.468-.091 3.23-.751 4.35-.171 3.983 2.061 7.734 4.567 11.597 6.863 13.737 8.164 27.472 16.333 41.244 24.437 1.818 1.069 3.85 1.774 6.788 3.102v-6.492c-.002-25.329-.007-50.658-.005-75.986.001-6.035.498-6.597 6.515-6.612 15.164-.037 30.328-.024 45.492-.001 5.882.009 6.741.788 6.735 6.567-.029 25.66-.12 51.32-.187 76.98-.004 1.639 0 3.278 0 6.294 3.416-2 5.875-3.428 8.322-4.876 16.042-9.491 32.046-19.048 48.153-28.427 2.901-1.689 4.146-3.513 4.134-7.049-.145-40.825-.036-81.651-.177-122.476-.014-4.125 1.083-6.747 4.748-8.887 14.511-8.472 28.84-17.253 43.292-25.828M1.747 262.273c1.81.634 3.785.992 5.405 1.948 7.881 4.648 15.614 9.548 23.515 14.161 2.982 1.741 3.881 3.98 3.855 7.347-.158 20.66-.044 41.323-.202 61.983-.027 3.575 1.097 5.742 4.246 7.592 25.256 14.836 50.388 29.884 75.665 44.684 1.539.901 4.202.838 5.973.2 4.84-1.743 9.514-3.964 14.191-6.131 3.306-1.533 6.185-1.301 9.404.614 21.734 12.932 43.59 25.662 65.336 38.575 2.638 1.567 4.569 1.445 7.182-.135 18.65-11.269 37.406-22.364 56.135-33.502 2.747-1.633 5.003-3.257 5.571-7.003.63-4.146 5.353-6.559 9.204-5.562 3.816.987 6.212 5.461 5.121 9.562-.979 3.677-4.874 5.602-9.04 5.092-2.098-.257-4.689-.05-6.443.986-19.757 11.67-39.459 23.437-59.01 35.448-3.965 2.436-6.785 2.347-10.786-.107-18.283-11.213-36.819-22.015-55.266-32.961-.859-.509-1.905-.813-2.588-1.49-6.925-6.863-14.362-5.705-21.657-1.044-7.899 5.047-14.495 3.038-21.981-1.584-22.233-13.725-44.785-26.947-67.454-39.943-6.365-3.649-9.252-7.822-9.043-15.428.54-19.646.275-39.316.178-58.976-.008-1.545-.773-3.77-1.933-4.511-6.834-4.369-13.89-8.393-21.771-13.067-.156 2.379-.342 3.907-.342 5.434 0 30.658.107 61.317-.066 91.974-.022 3.92 1.355 5.942 4.564 7.837 27.952 16.501 55.787 33.2 83.772 49.644 1.995 1.172 5.09 1.549 7.357.996 11.46-2.797 22.788-6.134 34.232-9.001 2.024-.507 4.785-.379 6.523.63 21.582 12.531 43.13 25.13 64.459 38.086 4.923 2.991 8.444 3.004 13.396-.129 15.041-9.514 30.553-18.28 45.741-27.566 2.144-1.31 4.002-3.653 5.119-5.943 1.701-3.485 4.14-4.721 7.635-3.841 3.451.869 4.775 3.449 4.288 6.864-.516 3.618-2.961 4.801-6.369 5.011-2.198.135-4.666.329-6.491 1.393-15.949 9.299-32.074 18.352-47.513 28.446-6.915 4.522-11.762 4.185-18.563-.087-19.292-12.12-39.15-23.337-58.715-35.025-3.885-2.321-7.421-3.486-12.156-2.019-10.624 3.29-21.447 5.96-32.247 8.646-1.919.477-4.12-.186-6.533-.507-28.643-17.064-56.855-34.1-85.322-50.699-6.013-3.506-8.418-7.341-8.32-14.521.437-32.153.15-64.316.237-96.474.005-1.967.982-3.931 1.507-5.897m305.038-152.95c3.107-.66 7.106 2.797 8.482 6.35.841 2.17 2.554 4.479 4.516 5.663a3133 3133 0 0 0 51.58 30.474c3.259 1.882 4.104 4.188 4.086 7.681-.108 21.492.128 42.987-.167 64.475-.067 4.923 1.836 7.572 5.776 9.857 13.244 7.683 26.331 15.642 39.585 23.308 2.81 1.625 3.935 3.48 3.925 6.737-.104 34.987-.136 69.975.005 104.961.016 3.846-1.276 6.203-4.462 8.087-26.068 15.419-52.098 30.903-78.132 46.38-3.43 2.039-6.752 4.272-10.242 6.199-3.663 2.023-5.449 1.159-5.517-2.901-.181-10.66-.305-21.332.089-31.98.071-1.912 2.361-4.311 4.248-5.491 10.298-6.44 20.798-12.556 31.213-18.81 8.556-5.136 17.167-10.191 25.563-15.578 1.451-.931 2.756-3.332 2.773-5.067.195-19.824.167-39.65.045-59.475-.008-1.402-.867-3.222-1.939-4.119-3.693-3.086-4.189-6.546-1.838-10.94 5.103-4.125 8.682-4.149 11.957-.386 3.147 3.616 2.602 7.09-1.183 11.351-1.139 1.283-1.762 3.467-1.774 5.244-.127 19.492-.21 38.987.006 58.477.048 4.359-1.256 7.014-5.062 9.246-18.658 10.945-37.141 22.189-55.77 33.184-2.45 1.446-3.53 2.905-3.447 5.854.229 8.149.079 16.309.079 25.43 1.994-.872 3.47-1.34 4.765-2.11 26.593-15.824 53.149-31.711 79.769-47.49 2.504-1.485 3.819-2.903 3.804-6.16q-.223-50.477.029-100.955c.017-3.517-1.155-5.428-4.057-7.121-13.793-8.045-27.452-16.321-41.252-24.354-2.738-1.595-4.051-3.302-4.023-6.657.184-22.656.078-45.315.265-67.97.027-3.225-1.362-4.684-3.888-6.156-17.106-9.972-34.105-20.129-51.235-30.06-1.48-.858-3.722-.943-5.492-.656-4.888.792-8.647-1.292-9.489-5.684-.73-3.807 2.282-7.96 6.409-8.838M208.97 300.342c2.634-2.087 5.309-1.814 7.684.366 2.733 2.509 2.802 5.261.848 8.495-1.189 1.967-2.153 4.443-2.163 6.694-.139 30.807-.093 61.614-.096 92.421-.001 7.77-2.3 9.166-9.224 5.151-15.538-9.012-30.981-18.188-46.447-27.324-17.897-10.573-35.764-21.198-53.694-31.714-1.173-.688-2.897-1.144-4.159-.843-3.858.919-6.72-.069-8.074-3.801-1.296-3.568.388-6.092 4.046-7.771 4.211-.515 6.655 1.003 8.143 4.666.684 1.683 2.116 3.417 3.676 4.339 31.211 18.462 62.487 36.814 93.765 55.162 1.808 1.06 3.747 1.898 6.389 3.222.16-2.706.371-4.621.372-6.535.012-28.975.053-57.952-.114-86.927-.014-2.422-1.149-5.008-2.328-7.215-1.775-3.325-1.598-6.031 1.376-8.386m116.982-84.988c1.911-1.104 5.669-1.023 7.498.185 3.13 2.069 3.193 5.44.666 8.705-1.017 1.315-1.785 3.22-1.792 4.86-.108 27.983-.142 55.967.064 83.949.013 1.811 1.691 4.195 3.293 5.3 4.641 3.2 9.702 5.786 14.469 8.815 2.245 1.426 5.446 2.66 3.192 6.75-16.792 10.203-33.301 20.179-49.869 30.056-17.848 10.639-35.775 21.146-53.583 31.851-1.366.821-2.389 2.624-3.009 4.193-1.506 3.806-4.178 5.065-7.929 4.079-3.533-.93-4.68-3.561-3.979-6.931.788-3.793 3.375-4.923 7.077-4.616 1.68.139 3.7-.06 5.102-.89 31.786-18.799 63.51-37.705 95.236-56.606 1.387-.827 2.688-1.798 4.987-3.346-4.139-2.583-7.48-4.884-11.016-6.829-6.256-3.442-9.608-7.701-9.423-15.726.601-25.971.284-51.966.122-77.95-.016-2.405-1.046-5.042-2.309-7.148-2.074-3.459-2.091-6.796 1.203-8.701m-38.981 175.929c-1.377-.275-2.957.465-4.452.779.371 1.694.741 3.388 1.73 5.413 1.523-1.053 3.182-1.972 4.447-3.275.24-.246-.939-2.759-1.725-2.917M94.599 69.847c2.894-1.657 4.648-.367 4.69 2.65.15 10.83.304 21.673-.124 32.487-.072 1.805-2.743 3.966-4.701 5.161-11.083 6.762-22.333 13.248-33.488 19.892-7.864 4.684-15.764 9.323-23.417 14.333-1.57 1.028-2.982 3.607-3.004 5.488-.233 19.33-.221 38.665-.075 57.996.013 1.658 1.128 3.654 2.344 4.889 3.23 3.282 3.827 7.898 1.014 11.171-2.361 2.747-7.76 3.141-10.463.764-3.428-3.015-3.407-7.355-.549-11.183 1.316-1.763 2.296-4.26 2.316-6.434.178-19.831.181-39.665.053-59.497-.023-3.572 1.669-5.422 4.479-7.038 7.07-4.064 14.048-8.29 21.383-12.625 12.293-7.403 24.285-14.601 36.209-21.91 1.28-.785 3.054-2.19 3.091-3.354.265-8.457.143-16.926.143-26.353-2.664 1.23-4.631 1.939-6.4 2.984-26.522 15.66-52.995 31.405-79.556 46.999-2.493 1.463-3.389 2.996-3.378 5.89.123 32.998.166 65.998.012 98.995-.018 3.852 1.176 5.996 4.457 7.93 13.62 8.028 27.05 16.381 40.618 24.5 2.873 1.719 4.036 3.732 4.012 7.235-.154 22.331-.117 44.665.142 66.995.024 2.004 1.56 4.812 3.25 5.85 17.446 10.717 35.038 21.199 52.697 31.561 1.46.856 3.783.74 5.584.413 4.503-.818 8.399 1.073 9.499 5.017 1.115 3.997-1.392 8.257-5.466 9.293-3.743.952-7.476-1.88-9.044-5.964-.795-2.067-2.556-4.186-4.453-5.342a3759 3759 0 0 0-53.126-31.802c-3.166-1.859-4.23-4.013-4.202-7.595.164-21.329-.076-42.663.258-63.988.08-5.114-1.925-7.868-5.986-10.28-13.301-7.903-26.551-15.902-39.61-24.195-1.811-1.15-3.456-4.153-3.467-6.307-.186-34.498-.042-68.996-.137-103.494-.01-3.823 1.3-6.108 4.56-8.018 26.426-15.482 52.777-31.09 79.142-46.672 3.582-2.117 7.082-4.376 10.693-6.442m25.985 310.16c-1.69.285-3.508.312-4.983 1.035-.377.185-.125 3.019.665 3.83.785.806 2.611.599 3.981.836.293-1.73.586-3.461.337-5.701M214.816 0c.95.976 1.233 2.354 2.055 2.864 5.799 3.6 11.704 7.028 17.584 10.497q34.206 20.181 68.416 40.356c.287.17.677.26.853.506 1.006 1.413 1.962 2.862 2.934 4.299-1.737-.04-3.818.533-5.157-.216-9.588-5.367-19.037-10.983-28.508-16.558-18.796-11.065-37.612-22.099-56.332-33.291-2.935-1.755-5.226-1.886-8.213-.096-25.561 15.321-50.958 30.947-76.974 45.458-7.806 4.354-10.008 9.075-9.554 17.437.73 13.46.087 26.989.305 40.484.059 3.674-1.245 5.789-4.328 7.606-19.929 11.742-39.732 23.699-59.691 35.39-2.956 1.732-4.096 3.475-4.07 6.996.2 26.331.21 52.664.062 78.995-.02 3.476 1.108 5.531 3.939 7.311 3.655 2.299 6.896 5.279 10.619 7.445 4.487 2.612 5.657 6.233 5.583 11.196-.266 17.661-.164 35.327-.2 52.992-.004 2.146 0 4.292 0 7.6 5.746-3.343 10.71-6.193 15.634-9.108 7.876-4.661 15.661-9.482 23.623-13.99 2.775-1.571 3.979-3.285 3.969-6.626-.12-40.328.029-80.656-.185-120.983-.029-5.449 1.396-8.81 6.274-11.653 19.84-11.562 39.423-23.568 59.135-35.351 3.658-2.187 5.471-1.131 5.562 3.416.174 8.662.104 17.33.099 25.996-.012 19.331-.05 38.663-.063 57.995 0 .798.146 1.596.281 2.968h18.478c8.166-.001 16.345-.27 24.493.105 4.433.204 5.593-1.056 5.551-5.517-.245-25.994-.214-51.992-.131-77.989.029-9.103 1.183-9.554 9.229-4.78 18.751 11.127 37.575 22.131 56.259 33.369 1.561.939 2.291 3.262 3.407 4.942-1.91-.24-4.149.084-5.681-.807-17.554-10.211-34.996-20.615-52.485-30.937-1.417-.836-2.968-1.445-5.197-2.515-.246 2.922-.644 5.453-.643 7.984.012 24.829.086 49.658.154 74.487.016 5.861-.705 6.71-6.541 6.728-15.332.047-30.666-.095-45.996.08-4.759.054-6.355-1.643-6.316-6.466.208-25.663.114-51.329.125-76.994l.001-5.834c-1.831.774-3.172 1.17-4.339 1.86-17.755 10.514-35.446 21.139-53.267 31.539-3.053 1.782-3.252 4.113-3.249 7.076.045 40.83-.031 81.662.108 122.492.013 3.788-1.017 6.113-4.305 8.055-14.327 8.465-28.494 17.198-42.792 25.71-4.76 2.834-6.156 1.951-6.167-3.643-.042-20.832-.115-41.666.06-62.496.031-3.635-1.134-5.781-4.149-7.706-4.759-3.039-9.313-6.436-13.698-9.996-1.195-.97-2.077-3.066-2.082-4.649-.093-28.33-.12-56.662.174-84.989.024-2.286 1.919-5.452 3.894-6.678 19.801-12.287 39.765-24.315 59.785-36.244 2.959-1.762 4.055-3.715 4.019-7.146-.165-15.664.036-31.332-.108-46.995-.033-3.569 1.037-5.801 4.2-7.662 28.557-16.798 57.035-33.731 85.512-50.666 1.524-.906 2.83-2.177 3.85-3.465C211.622 0 213.011 0 214.816 0m132.855 256.649c2.575-2.567 7.437-2.984 10.032-.557 2.93 2.74 4.746 6.821 1.704 9.682-4.121 3.877-3.575 8.179-3.548 12.745.012 1.995-.031 3.99-.05 6.484-.001 5.487.212 10.489-.125 15.454-.106 1.55-1.698 3-2.609 4.495-.786-1.455-2.214-2.894-2.253-4.369-.214-8.141-.147-16.292-.055-24.438.041-3.537-.013-6.616-3.379-9.192-3.024-2.314-2.479-7.55.283-10.304M179.897 97.934c1.715-3.612 4.607-5.562 7.931-3.725 2.024 1.118 3.982 4.684 3.786 6.962-.32 3.721-3.549 5.172-7.496 4.606-1.465-.209-3.298.007-4.546.74-32.712 19.188-65.37 38.467-98.027 57.749-1.115.658-2.118 1.505-3.905 2.79 2.929 2.076 5.397 3.897 7.939 5.608 2.892 1.946 5.8 3.879 8.793 5.662 3.062 1.824 3.956 4.34 3.936 7.887a7176 7176 0 0 0-.011 81.43c.013 2.38 1.187 4.945 2.419 7.081 1.768 3.066 1.809 5.685-.81 8.064-2.535 2.301-5.483 2.691-8.13.392-2.727-2.368-2.941-5.232-1.105-8.523 1.207-2.165 2.357-4.738 2.372-7.136.169-26.643.153-53.289.023-79.933-.009-1.897-1.306-3.789-2.323-5.907-5.814-3.669-11.323-7.09-16.799-10.564-5.231-3.319-5.205-5.2.242-8.405 15.768-9.277 31.585-18.47 47.356-27.741 18.203-10.702 36.408-21.404 54.517-32.264 1.656-.993 2.979-2.963 3.838-4.773m215.506 179.511c.004-.327-2.87-1.35-3.782-.864-1.174.627-2.683 3.11-2.33 3.631.919 1.356 2.774 2.077 5.037 2.766.423-1.844 1.052-3.684 1.075-5.533m-43.136-18.551c-.694 1.579-1.78 3.134-1.883 4.752-.039.614 2.313 2.064 3.342 1.874 1.084-.202 2.859-2.29 2.625-2.881-.588-1.491-2.135-2.603-4.084-3.745M71.47 194.253c.923 1.471 2.601 2.921 2.644 4.417.253 8.811.008 17.636.226 26.449.042 1.701 1.029 3.711 2.215 4.989 3.484 3.756 3.964 8.21.82 11.501-3.346 3.502-7.611 3.224-11.8-1.089-2.076-3.907-1.294-6.89 1.32-9.902 1.252-1.443 2.189-3.666 2.236-5.561.218-8.813-.029-17.637.164-26.452.032-1.465 1.416-2.902 2.175-4.352m2.388 39.568c-.13-.478-2.942-.883-3.907-.3-.932.564-1.803 3.248-1.42 3.599 1.222 1.118 3.042 1.583 5.273 1.883.083-1.745.487-3.576.054-5.182M209.56 36.89c1.583-.903 4.647-.727 6.288.221 22.475 12.99 44.835 26.179 67.181 39.39 3.034 1.794 5.878 2.313 9.384 1.223 10.161-3.162 20.393-6.122 30.689-8.809 2.118-.553 5.048-.283 6.908.802 25.454 14.846 50.786 29.902 76.478 45.064 5.061 2.949 9.969 5.491 14.435 8.657 1.711 1.213 3.417 3.845 3.428 5.839.182 34.49.119 68.981.05 103.471-.009 4.569-1.611 5.496-5.453 3.15-8.235-5.026-16.316-10.306-24.583-15.278-3.287-1.977-4.252-4.544-4.223-8.259.158-20.492-.042-40.989.22-61.479.053-4.144-1.532-6.337-4.825-8.27-19.953-11.71-39.844-23.527-59.747-35.324-4.577-2.713-9.002-5.717-13.736-8.112-1.705-.863-4.417-1.035-6.149-.299-4.882 2.075-9.361 5.118-14.275 7.091-2.106.845-5.397.856-7.301-.235-21.803-12.484-43.491-25.175-65.088-38.014-4.406-2.62-7.979-3.162-12.699-.31-18.079 10.924-36.479 21.317-54.592 32.187-2.077 1.246-3.457 4.079-4.537 6.459-1.591 3.506-5.72 6.15-9.281 4.949-3.709-1.251-5.813-4.042-5.236-8.033.604-4.17 3.602-7.282 7.536-6.336 5.974 1.436 9.82-1.837 14.136-4.365 18.371-10.759 36.657-21.666 55.104-32.293 1.464-.844 4.321-.666 5.853.215 22.062 12.696 44.064 25.498 65.932 38.524 4.44 2.644 8.327 3.561 12.797.509 1.91-1.304 4.349-1.881 6.141-3.301 5.946-4.71 11.14-3.067 17.071.544 24.601 14.978 49.411 29.613 74.22 44.246 2.873 1.694 3.678 3.768 3.664 6.903-.098 21.161.03 42.323-.128 63.483-.026 3.479 1.1 5.419 4.123 7.094 6.495 3.602 12.757 7.625 19.731 11.849.165-2.169.363-3.579.365-4.989.043-30.824.009-61.649.167-92.472.017-3.299-1.099-5.073-3.869-6.7a15422 15422 0 0 1-84.664-50.087c-3.286-1.959-6.289-2.273-9.915-1.172a874 874 0 0 1-30.252 8.574c-1.886.5-4.474.572-6.058-.34a6050 6050 0 0 1-66.809-39.02c-3.847-2.28-6.853-2.56-10.889-.097-15.761 9.621-31.808 18.772-47.636 28.284-1.93 1.16-3.578 3.236-4.657 5.26-1.703 3.197-4.039 4.326-7.37 3.452-3.482-.913-4.724-3.465-4.366-6.858.398-3.772 3.024-4.589 6.321-5.02 3.124-.408 6.514-.877 9.173-2.395 17.051-9.736 33.887-19.848 50.943-29.573M34.848 216.63c-.183-.725-2.905-1.418-4.18-1.062-.967.271-2.276 3.058-2.038 3.288 1.325 1.286 3.076 2.133 5.414 2.891.342-1.724 1.192-3.577.804-5.117M210.016 88.514c.025-6.108 1.503-7.109 6.676-4.173 14.617 8.294 29.16 16.718 43.705 25.137 18.145 10.501 36.284 21.014 54.377 31.603 3.655 2.139 6.706 5.044 11.769 3.754 1.407-.358 4.659 2.791 5.53 4.95 1.281 3.174-.803 6.453-4.062 6.68-2.453.17-5.371-1.601-7.531-3.236-2.479-1.877-3.943-5.248-6.547-6.783-27.957-16.474-56.046-32.726-84.118-49.006-4.534-2.63-9.162-5.102-14.685-8.168 0 5.637-.005 10.086.001 14.534.037 26.488.029 52.978.209 79.465.014 2.074 1.006 4.354 2.144 6.16 2.003 3.177 1.983 6.008-.663 8.558-2.481 2.392-5.394 2.663-8.071.306-2.768-2.437-2.818-5.234-1.119-8.541 1.217-2.369 2.221-5.163 2.247-7.778.189-19.491.11-38.984.115-58.976.004-11.829-.024-23.158.023-34.486m96.23 25.1c-.477 1.667-1.305 3.351-1.227 4.99.027.522 2.65 1.538 3.745 1.207 1.019-.31 2.475-2.732 2.189-3.14-.96-1.371-2.611-2.259-4.707-3.057M143.09 102.189c-1.695-.409-3.439-1.21-5.058-1.009-.543.067-1.338 2.866-.956 4.083.293.931 2.879 2.17 3.358 1.813 1.275-.949 1.963-2.688 2.656-4.887"/></svg>